[B]Hum Se Hai Muqabla (1995)[/B]

 
http://www.shotpix.com/images/09769179230758387977.jpg



[B]INFO[/B]

[CODE]The movie is Hindi dub of "Kadhlan" 1994 - Telgu, signature steps of Prabhu Deva and Music from A.R. Rehman brought lot of popularity to the film all over. The movie won "Best Special effects" award ... chk out "Muqabla" song. Don't miss "Urvashi" & "Gopala" songs also.[/CODE]

[CODE]Format : AVI
Format/Info : Audio Video Interleave
File size : 1.45 GiB
Duration : 2h 35mn
Overall bit rate : 1 336 Kbps
Writing application : VirtualDubMod 1.5.10.2 (build 2542/release)
Writing library : VirtualDubMod build 2542/release

Video
ID : 0
Format : MPEG-4 Visual
Format profile : Advanced Simple@L5
Format settings, BVOP : 2
Format settings, QPel : Yes
Format settings, GMC : No warppoints
Format settings, Matrix : Custom
Codec ID : XVID
Codec ID/Hint : XviD
Duration : 2h 35mn
Bit rate : 1 103 Kbps
Width : 688 pixels
Height : 352 pixels
Display aspect ratio : 1.955
Frame rate : 23.976 fps
Color space : YUV
Chroma subsampling : 4:2:0
Bit depth : 8 bits
Scan type : Progressive
Compression mode : Lossy
Bits/(Pixel*Frame) : 0.190
Stream size : 1.20 GiB (83%)
Writing library : XviD 1.2.1 (UTC 2008-12-04)

Audio
ID : 1
Format : AC-3
Format/Info : Audio Coding 3
Mode extension : CM (complete main)
Codec ID : 2000
Duration : 2h 35mn
Bit rate mode : Constant
Bit rate : 224 Kbps
Channel(s) : 6 channels
Channel positions : Front: L C R, Side: L R, LFE
Sampling rate : 48.0 KHz
Bit depth : 16 bits
Compression mode : Lossy
Stream size : 249 MiB (17%)
Alignment : Split accross interleaves
Interleave, duration : 42 ms (1.00 video frame)
Interleave, preload duration : 500 ms[/CODE]



[B]Ripper -=Rangeela=-
Source DVD9 by DB007(Thanx!)
Subtitles English[/B]



[B]SCREEN SHOTS[/B]
 
http://www.shotpix.com/images/92524695821896955808.png
 
http://www.shotpix.com/images/44504186933854074009.png
 
http://www.shotpix.com/images/10952560863317149289.png
 
http://www.shotpix.com/images/63929098408972005694.png
 
http://www.shotpix.com/images/60308465033559529216.png
 
http://www.shotpix.com/images/30804190044996064289.png
 
http://www.shotpix.com/images/69913033483619843630.png
 
http://www.shotpix.com/images/02734640473717346812.png
 
http://www.shotpix.com/images/03783032369750206409.png
 
http://www.shotpix.com/images/96551968963484860775.png
 
http://www.shotpix.com/images/21708509006127764065.jpg